<?xml version="1.0" encoding="iso-8859-1"?>
<!-- Generator: Adobe Illustrator 19.0.0, SVG Export Plug-In . SVG Version: 6.00 Build 0)  -->
<svg version="1.1" id="Layer_1" xmlns="http://www.w3.org/2000/svg" xmlns:xlink="http://www.w3.org/1999/xlink" x="0px" y="0px"
	 viewBox="0 0 505 505" style="enable-background:new 0 0 505 505;" xml:space="preserve">
<circle style="fill:#324A5E;" cx="252.5" cy="252.5" r="252.5"/>
<path style="fill:#CED5E0;" d="M441.6,419.8C395.4,472.1,327.7,505,252.5,505c-75.3,0-142.9-32.9-189.1-85.2
	C73.2,260.8,88.2,68,252.5,63.1C416.7,68,431.8,260.8,441.6,419.8z"/>
<ellipse style="fill:#ACB3BA;" cx="255.7" cy="290.8" rx="50.7" ry="32.5"/>
<g>
	<path style="fill:#324A5E;" d="M315,287.5c0,0,0.1,0.6,0.4,1.8c0.3,1.3,0.7,3.1,1.1,5.3c0.9,4.4,1.9,10.7,2.7,18.2
		c0.9,7.5,1.4,16.3,1.5,25.7c0,4.7-0.2,9.5-0.3,14.4c-0.5,4.9-0.6,9.9-1.4,14.8c-0.7,4.9-1.3,9.9-2.4,14.6c-0.9,4.8-2,9.5-3.4,13.9
		c-1.2,4.5-2.5,8.7-4.2,12.6c-1.5,4-2.8,7.7-4.6,10.9c-1.6,3.3-3.1,6.3-4.4,9c-1.6,2.5-2.9,4.7-4,6.5c-2.2,3.6-3.5,5.6-3.5,5.6
		s0.9-2.2,2.5-6.1c0.8-1.9,1.7-4.3,2.8-7c0.8-2.8,1.7-5.9,2.8-9.4c1.1-3.4,1.8-7.2,2.6-11.2c0.9-4,1.5-8.2,1.9-12.6
		c0.6-4.4,0.8-8.9,0.9-13.5c0.3-4.6,0-9.3-0.1-13.9s-0.8-9.3-1.1-13.9c-0.6-4.5-1.2-9-2-13.3c-1.6-8.6-3.4-16.4-5.4-23.1
		c-1.9-6.6-3.8-12-5.2-15.7c-0.7-1.9-1.3-3.2-1.6-4c-0.4-1-0.6-1.5-0.6-1.5L315,287.5z"/>
	<path style="fill:#324A5E;" d="M190,287.5c0,0-0.1,0.6-0.4,1.8c-0.3,1.3-0.7,3.1-1.1,5.3c-0.9,4.4-1.9,10.7-2.7,18.2
		c-0.9,7.5-1.4,16.3-1.5,25.7c0,4.7,0.2,9.5,0.3,14.4c0.5,4.9,0.6,9.9,1.4,14.8c0.7,4.9,1.3,9.9,2.4,14.6c0.9,4.8,2,9.5,3.4,13.9
		c1.2,4.5,2.6,8.7,4.2,12.6c1.5,4,2.8,7.7,4.6,10.9c1.6,3.3,3.1,6.3,4.4,9c1.6,2.5,2.9,4.7,4,6.5c2.2,3.6,3.5,5.6,3.5,5.6
		s-0.9-2.2-2.5-6.1c-0.8-1.9-1.7-4.3-2.8-7c-0.8-2.8-1.7-5.9-2.8-9.4c-1.1-3.4-1.8-7.2-2.6-11.2c-0.9-4-1.5-8.2-1.9-12.6
		c-0.6-4.4-0.8-8.9-0.9-13.5c-0.3-4.6,0-9.3,0.1-13.9s0.8-9.3,1.1-13.9c0.6-4.5,1.2-9,2-13.3c1.6-8.6,3.4-16.4,5.4-23.1
		c1.9-6.6,3.8-12,5.2-15.7c0.7-1.9,1.3-3.2,1.6-4c0.4-1,0.6-1.5,0.6-1.5L190,287.5z"/>
</g>
<path style="fill:#FFFFFF;" d="M300.9,218.7h-88.3c-25,0-47.4,18.3-49.7,43.2c-2.7,28.6,19.7,52.6,47.7,52.6
	c12.2,0,23.3-4.6,31.8-12.1c7.5-6.7,18.7-7.6,26.1-0.7c10.7,10,26,15.1,42.4,11.8c18.3-3.6,33.2-18.3,37-36.6
	C354.2,246,330.8,218.7,300.9,218.7z"/>
<path style="fill:#324A5E;" d="M281.6,216.2c0,10.2-11.6,23.9-25.8,23.9c-14.3,0-25.8-13.7-25.8-23.9s11.6-12.9,25.8-12.9
	C270,203.3,281.6,206.1,281.6,216.2z"/>
<g>
	<circle style="fill:#CED5E0;" cx="320.7" cy="260.7" r="5.4"/>
	<circle style="fill:#CED5E0;" cx="292.1" cy="267.3" r="5.4"/>
	<circle style="fill:#CED5E0;" cx="313.8" cy="284.7" r="5.4"/>
	<circle style="fill:#CED5E0;" cx="190.8" cy="260.7" r="5.4"/>
	<circle style="fill:#CED5E0;" cx="219.4" cy="267.3" r="5.4"/>
	<circle style="fill:#CED5E0;" cx="197.7" cy="284.7" r="5.4"/>
</g>
<path style="fill:#FFFFFF;" d="M291.9,164c2,15.8,14.2,28,27.4,27.3c13.2-0.7,22.3-14,20.3-29.7c-2-15.8-14.2-28-27.4-27.3
	C299,134.9,289.9,148.2,291.9,164z"/>
<path style="fill:#F9B54C;" d="M295.8,168.3c1.3,10.2,10.7,18.1,21,17.6s17.7-9.2,16.4-19.5c-1.3-10.2-10.7-18.1-21-17.6
	S294.5,158.1,295.8,168.3z"/>
<path style="fill:#2B3B4E;" d="M305,167.8c0.6,5.2,5.4,9.2,10.7,8.9c5.2-0.3,9-4.7,8.3-9.9c-0.6-5.2-5.4-9.2-10.7-8.9
	S304.4,162.6,305,167.8z"/>
<g>
	<path style="fill:#FFFFFF;" d="M307.2,155.9c-1.4,2.4-0.1,4.9,3,5.6c3,0.7,6.7-0.6,8.1-2.9c1.4-2.4,0.1-4.9-3-5.6
		C312.2,152.2,308.6,153.5,307.2,155.9z"/>
	<path style="fill:#FFFFFF;" d="M213.2,164c-2,15.8-14.2,28-27.4,27.3s-22.3-14-20.3-29.7c2-15.8,14.2-28,27.4-27.3
		C206,134.9,215.1,148.2,213.2,164z"/>
</g>
<path style="fill:#F9B54C;" d="M209.2,168.3c-1.3,10.2-10.7,18.1-21,17.6s-17.7-9.2-16.4-19.5c1.3-10.2,10.7-18.1,21-17.6
	S210.5,158.1,209.2,168.3z"/>
<path style="fill:#2B3B4E;" d="M200,167.8c-0.6,5.2-5.4,9.2-10.7,8.9c-5.2-0.3-9-4.7-8.3-9.9c0.6-5.2,5.4-9.2,10.7-8.9
	C196.9,158.2,200.6,162.6,200,167.8z"/>
<path style="fill:#FFFFFF;" d="M197.8,155.9c1.4,2.4,0.1,4.9-3,5.6c-3,0.7-6.7-0.6-8.1-2.9c-1.4-2.4-0.1-4.9,3-5.6
	C192.8,152.2,196.4,153.5,197.8,155.9z"/>
<g>
</g>
<g>
</g>
<g>
</g>
<g>
</g>
<g>
</g>
<g>
</g>
<g>
</g>
<g>
</g>
<g>
</g>
<g>
</g>
<g>
</g>
<g>
</g>
<g>
</g>
<g>
</g>
<g>
</g>
</svg>
